Coordinates
version=1
nRows=16
nColumns=42
inDegrees=yes

Units are S.I. units (second, meters, Newtons, ...)
If the header above contains a line with 'inDegrees', this indicates whether rotational values are in degrees (yes) or radians (no).

endheader
time	pelvis_tilt	pelvis_list	pelvis_rotation	pelvis_tx	pelvis_ty	pelvis_tz	hip_flexion_r	hip_adduction_r	hip_rotation_r	knee_angle_r	knee_adduction_r	knee_angle_r_beta	ankle_angle_r	subtalar_angle_r	mtp_angle_r	hip_flexion_l	hip_adduction_l	hip_rotation_l	knee_angle_l	knee_adduction_l	knee_angle_l_beta	ankle_angle_l	subtalar_angle_l	mtp_angle_l	lumbar_extension	lumbar_bending	lumbar_rotation	arm_flex_r	arm_add_r	arm_rot_r	elbow_flex_r	pro_sup_r	wrist_flex_r	wrist_dev_r	arm_flex_l	arm_add_l	arm_rot_l	elbow_flex_l	pro_sup_l	wrist_flex_l	wrist_dev_l
      2.43000000	     11.80825819	      4.27315073	      3.58118259	      0.62480043	      0.93325563	     -0.28487682	      4.65055817	     -5.07488564	     -1.08009940	     61.94337585	      4.19535522	      1.08111586	      4.96387247	    -15.02791279	     -7.50501249	      0.36132894	      8.91651539	    -23.60089254	     24.38094368	     -7.35213238	      0.42552774	     20.51893969	     19.27404518	     -7.50501249	    -43.52495513	     -7.46364746	     -2.21627340	      2.51808807	     -8.77588698	     10.34545222	     39.70244924	     90.00000001	      0.00000000	      0.00000000	     -2.23455151	    -15.04590072	     20.04353510	     50.64170025	     90.00000001	      0.00000000	      0.00000000
      2.44000000	     11.64312945	      4.31466304	      3.50040279	      0.62906227	      0.93306896	     -0.28508897	      6.11510540	     -5.10021706	     -0.90109848	     61.76447041	      3.78876932	      1.07799337	      5.90178535	    -14.62328657	     -7.50478583	      0.23645661	      8.90314231	    -25.02951879	     24.18754872	     -7.79369040	      0.42215236	     20.83339107	     21.59276643	     -7.50478583	    -43.41752050	     -7.48257331	     -2.21699625	      2.49006784	     -8.71624659	     10.31452280	     39.81897968	     90.00000001	      0.00000000	      0.00000000	     -2.16379030	    -15.08015185	     20.17912379	     50.50582977	     90.00000001	      0.00000000	      0.00000000
      2.45000000	     11.62171328	      4.26016052	      3.47226410	      0.63342937	      0.93332838	     -0.28521654	      7.25812161	     -4.90631849	     -0.86689287	     61.18231225	      3.24579371	      1.06783279	      6.63188032	    -14.65041861	     -7.50452830	     -0.15234493	      8.73345721	    -25.95257090	     23.96496183	     -7.91781227	      0.41826749	     21.16143745	     22.98124992	     -7.50452830	    -43.45630429	     -7.37781952	     -2.19946516	      2.48916445	     -8.67469940	     10.32415194	     39.90526580	     90.00000001	      0.00000000	      0.00000000	     -2.12527835	    -15.08567171	     20.19552865	     50.39707530	     90.00000001	      0.00000000	      0.00000000
      2.46000000	     11.51063386	      4.27755403	      3.47216014	      0.63766057	      0.93344317	     -0.28545770	      8.48750822	     -4.81389570	     -0.77502084	     60.51154036	      2.78828977	      1.05612561	      7.26134243	    -14.81011814	     -7.50446935	     -0.51048529	      8.83380254	    -26.16520905	     23.58284486	     -8.01174788	      0.41159829	     21.29388967	     23.10558751	     -7.50446935	    -43.42306593	     -7.32235772	     -2.25237274	      2.50230207	     -8.62041902	     10.33771987	     39.94681423	     90.00000001	      0.00000000	      0.00000000	     -2.11186183	    -15.10992740	     20.21881937	     50.29487071	     90.00000001	      0.00000000	      0.00000000
      2.47000000	     11.42189340	      4.33127446	      3.46321974	      0.64196929	      0.93358059	     -0.28567664	      9.61890267	     -4.77673313	     -0.65357391	     59.66643736	      2.42098578	      1.04137578	      7.79647253	    -14.94564584	     -7.50441710	     -0.92844588	      8.99061694	    -26.36064810	     23.14228039	     -8.09059041	      0.40390899	     21.39479710	     23.36356529	     -7.50441710	    -43.39292273	     -7.29584104	     -2.32443085	      2.50540074	     -8.56166719	     10.33180692	     40.01109992	     90.00000001	      0.00000000	      0.00000000	     -2.12928371	    -15.14070016	     20.24738190	     50.17509863	     90.00000001	      0.00000000	      0.00000000
      2.48000000	     11.45493601	      4.40861679	      3.41818397	      0.64649559	      0.93397806	     -0.28588237	     10.50287544	     -4.77225698	     -0.45753579	     58.60083762	      2.16817141	      1.02277756	      8.30470765	    -15.18141595	     -7.50435270	     -1.61880493	      9.19052724	    -26.56497579	     22.44807250	     -8.12935122	      0.39179278	     21.47688179	     24.02357864	     -7.50435270	    -43.48149017	     -7.29376948	     -2.35207539	      2.47898112	     -8.52633213	     10.29045519	     40.06067417	     90.00000001	      0.00000000	      0.00000000	     -2.14410776	    -15.15101424	     20.28987266	     49.99976236	     90.00000001	      0.00000000	      0.00000000
      2.49000000	     11.62651360	      4.47204481	      3.40962093	      0.65125143	      0.93468365	     -0.28611309	     11.06844624	     -4.76875097	     -0.21869195	     57.24403338	      2.06496526	      0.99909686	      8.53868234	    -15.34886932	     -7.50425588	     -2.55735581	      9.34452480	    -26.65653407	     21.66374325	     -8.04758093	      0.37810365	     21.45807820	     24.83663480	     -7.50425588	    -43.69255432	     -7.24096899	     -2.42351770	      2.44178171	     -8.48475390	     10.21416265	     40.19161730	     90.00000001	      0.00000000	      0.00000000	     -2.21402135	    -15.18543144	     20.31103037	     49.86819054	     90.00000001	      0.00000000	      0.00000000
      2.50000000	     11.55763385	      4.53904959	      3.41614017	      0.65572684	      0.93476114	     -0.28635924	     11.97025238	     -4.74814646	     -0.12534546	     55.93824144	      1.77901385	      0.97630649	      8.79800345	    -15.44893245	     -7.50419884	     -3.02463014	      9.59463694	    -26.66998009	     21.16451671	     -8.19514267	      0.36939050	     21.57346261	     24.89405814	     -7.50419884	    -43.66484012	     -7.20151707	     -2.48484729	      2.41401142	     -8.46013089	     10.19232792	     40.25700269	     90.00000001	      0.00000000	      0.00000000	     -2.31246061	    -15.22021603	     20.31696586	     49.80000484	     90.00000001	      0.00000000	      0.00000000
      2.51000000	     11.69563736	      4.60317954	      3.40701779	      0.66050618	      0.93530036	     -0.28658356	     12.46067750	     -4.74758748	      0.04376855	     54.32909033	      1.68072152	      0.94822151	      8.91850377	    -15.66942630	     -7.50413301	     -3.95690296	      9.86665625	    -26.42555212	     20.28321413	     -8.18130163	      0.35400887	     21.63626903	     25.15636791	     -7.50413301	    -43.83112767	     -7.14833418	     -2.53112526	      2.38491188	     -8.44168492	     10.13372502	     40.30116651	     90.00000001	      0.00000000	      0.00000000	     -2.40940912	    -15.23431671	     20.31941043	     49.63387774	     90.00000001	      0.00000000	      0.00000000
      2.52000000	     12.01593773	      4.67425789	      3.44259127	      0.66549922	      0.93626687	     -0.28681631	     12.56936643	     -4.78931385	      0.16630646	     52.43206546	      1.68659875	      0.91511218	      8.74847285	    -15.81448747	     -7.50402356	     -5.27905559	     10.07415246	    -25.83593120	     19.20980830	     -7.84615185	      0.33527440	     21.41356497	     25.22379657	     -7.50402356	    -44.19289236	     -7.05232712	     -2.63710081	      2.32844459	     -8.41291473	     10.04875839	     40.46736382	     90.00000001	      0.00000000	      0.00000000	     -2.53484296	    -15.26793958	     20.28199708	     49.53962561	     90.00000001	      0.00000000	      0.00000000
      2.53000000	     12.12143791	      4.75500557	      3.46099070	      0.67030381	      0.93661134	     -0.28707156	     12.98600532	     -4.84518800	      0.20389210	     50.62078074	      1.57672185	      0.88349929	      8.71872267	    -15.81695607	     -7.50393071	     -6.20697126	     10.39703917	    -25.33933584	     18.30184338	     -7.81177630	      0.31942743	     21.42639582	     25.00695114	     -7.50393071	    -44.32551683	     -6.98977624	     -2.71211017	      2.30102197	     -8.41354205	     10.00449269	     40.52155506	     90.00000001	      0.00000000	      0.00000000	     -2.66584551	    -15.29211025	     20.26624761	     49.41416544	     90.00000001	      0.00000000	      0.00000000
      2.54000000	     12.37523215	      4.85084236	      3.49771308	      0.67525883	      0.93727352	     -0.28728502	     13.09208567	     -4.90138555	      0.12616479	     48.57013121	      1.41312746	      0.84770871	      8.54168238	    -15.76074639	     -7.50375269	     -7.48516556	     10.72727327	    -24.38309135	     17.15662684	     -7.55009211	      0.29943963	     21.08034643	     24.26764554	     -7.50375269	    -44.62195318	     -6.91700191	     -2.81995787	      2.24362519	     -8.40826882	      9.95487632	     40.70168139	     90.00000001	      0.00000000	      0.00000000	     -2.82236194	    -15.34584653	     20.21041623	     49.38291052	     90.00000001	      0.00000000	      0.00000000
      2.55000000	     12.49211197	      4.97403422	      3.48701018	      0.68012965	      0.93748824	     -0.28743196	     13.37723937	     -5.02515597	      0.22855659	     46.55762614	      1.39712114	      0.81258387	      8.44881420	    -15.58914267	     -7.50364013	     -8.49932607	     11.08401999	    -23.76619431	     16.15110389	     -7.44306699	      0.28188994	     21.06865102	     24.04144537	     -7.50364013	    -44.76084856	     -6.90434618	     -2.89143938	      2.22107149	     -8.38766854	      9.89959685	     40.72203617	     90.00000001	      0.00000000	      0.00000000	     -2.94340652	    -15.36813281	     20.18223789	     49.21573310	     90.00000001	      0.00000000	      0.00000000
      2.56000000	     12.45107573	      5.09328689	      3.43396604	      0.68488712	      0.93718227	     -0.28744748	     13.90566925	     -5.12858998	      0.26758563	     44.63963100	      1.26399595	      0.77910854	      8.37205379	    -15.29404935	     -7.50357527	     -9.16694867	     11.47208093	    -23.47315806	     15.37988314	     -7.59096843	      0.26842960	     21.17859383	     23.87259125	     -7.50357527	    -44.73588245	     -6.93694087	     -2.92129536	      2.19743248	     -8.40151428	      9.85825605	     40.74760128	     90.00000001	      0.00000000	      0.00000000	     -3.10079587	    -15.41148667	     20.16222211	     49.11318121	     90.00000001	      0.00000000	      0.00000000
      2.57000000	     12.76243576	      5.18443316	      3.42052813	      0.69003966	      0.93768597	     -0.28744907	     13.75370556	     -5.18273558	      0.24128308	     42.29367194	      1.15112863	      0.73816383	      8.26289384	    -14.86135594	     -7.50346491	    -10.59427338	     11.67555830	    -22.70174294	     14.14978335	     -7.18618684	      0.24696031	     20.88124776	     23.59247669	     -7.50346491	    -45.06788326	     -6.87557848	     -2.97876063	      2.15102073	     -8.40511223	      9.79176061	     40.89009417	     90.00000001	      0.00000000	      0.00000000	     -3.24702620	    -15.44103126	     20.08858876	     49.00587710	     90.00000001	      0.00000000	      0.00000000
      2.58000000	     12.69397255	      5.34502055	      3.31474593	      0.69485558	      0.93711130	     -0.28731896	     14.24392202	     -5.32233419	      0.31555003	     40.28959783	      0.98466174	      0.70318614	      8.22575451	    -14.29184280	     -7.50339893	    -11.24269684	     12.08373494	    -22.44280644	     13.38726549	     -7.28279049	      0.23365186	     21.00763834	     23.42296783	     -7.50339893	    -45.00545851	     -6.97365095	     -2.98954082	      2.13283475	     -8.39596534	      9.77836519	     40.90111766	     90.00000001	      0.00000000	      0.00000000	     -3.39117604	    -15.46855725	     20.07524794	     48.89903958	     90.00000001	      0.00000000	      0.00000000
